<svg xmlns="http://www.w3.org/2000/svg" width="180" viewBox="0 0 450 150" height="63" version="1.0">
  <defs>
    <clipPath id="a">
      <path d="M 27 43.042969 L 123.605469 43.042969 L 123.605469 118.792969 L 27 118.792969 Z M 27 43.042969" />
    </clipPath>
    <clipPath id="b">
      <path d="M 22.355469 43.042969 L 119 43.042969 L 119 117 L 22.355469 117 Z M 22.355469 43.042969" />
    </clipPath>
    <clipPath id="c">
      <path d="M 22.355469 43.042969 L 120 43.042969 L 120 118 L 22.355469 118 Z M 22.355469 43.042969" />
    </clipPath>
    <clipPath id="d">
      <path d="M 93.15625 15 L 189 15 L 189 90.75 L 93.15625 90.75 Z M 93.15625 15" />
    </clipPath>
    <clipPath id="e">
      <path d="M 98 15 L 194.089844 15 L 194.089844 89 L 98 89 Z M 98 15" />
    </clipPath>
    <clipPath id="f">
      <path d="M 97 15 L 194.089844 15 L 194.089844 90 L 97 90 Z M 97 15" />
    </clipPath>
  </defs>
  <g clip-path="url(#a)">
    <path fill="#0A065C" d="M 123.574219 74.382812 C 123.574219 57.082031 102.140625 43.042969 75.707031 43.042969 C 49.277344 43.042969 27.839844 57.082031 27.839844 74.382812 C 27.839844 91.679688 49.277344 105.71875 75.707031 105.71875 C 82.445312 105.71875 85.910156 110.144531 85.910156 110.144531 L 89.984375 113.152344 C 98.816406 118.230469 102.957031 118.792969 102.957031 118.792969 L 100.125 101.324219 C 114.164062 95.878906 123.574219 85.855469 123.574219 74.382812" />
  </g>
  <g clip-path="url(#b)">
    <path fill="#08A1E4" d="M 118.132812 75.035156 C 118.132812 57.738281 96.695312 43.695312 70.265625 43.695312 C 43.832031 43.695312 22.394531 57.722656 22.394531 75.035156 C 22.394531 92.335938 43.832031 106.375 70.265625 106.375 C 73.585938 106.375 76.855469 106.152344 79.992188 105.71875 C 88.785156 112.890625 99.726562 116.949219 99.726562 116.949219 L 95.824219 101.53125 L 95.800781 101.53125 C 109.234375 95.984375 118.132812 86.183594 118.132812 75.035156" />
  </g>
  <g clip-path="url(#c)">
    <path fill="#0A065C" d="M 115.574219 62.472656 C 113.121094 58.664062 109.601562 55.265625 105.121094 52.332031 C 95.96875 46.351562 83.828125 43.042969 70.898438 43.042969 C 57.992188 43.042969 45.847656 46.339844 36.699219 52.332031 C 32.21875 55.265625 28.710938 58.691406 26.246094 62.472656 C 23.6875 66.453125 22.382812 70.679688 22.382812 75.035156 C 22.382812 79.394531 23.6875 83.605469 26.246094 87.585938 C 28.699219 91.378906 32.21875 94.792969 36.699219 97.726562 C 45.847656 103.707031 57.992188 107.015625 70.898438 107.015625 C 73.875 107.015625 76.800781 106.832031 79.648438 106.503906 C 82.707031 108.964844 85.925781 110.992188 88.628906 112.539062 C 94.347656 115.78125 99.160156 117.5625 99.199219 117.574219 C 99.28125 117.601562 99.34375 117.613281 99.425781 117.613281 C 99.597656 117.613281 99.726562 117.550781 99.859375 117.445312 C 100.042969 117.273438 100.109375 117.039062 100.070312 116.804688 L 96.390625 102.253906 C 99.515625 100.984375 102.417969 99.464844 105.09375 97.726562 C 109.574219 94.792969 113.082031 91.390625 115.546875 87.585938 C 118.105469 83.605469 119.410156 79.378906 119.410156 75.035156 C 119.410156 70.691406 118.132812 66.4375 115.574219 62.472656 M 95.96875 101.023438 L 94.914062 101.429688 L 95.417969 103.207031 L 98.515625 115.875 C 96.773438 115.15625 93.269531 113.625 89.285156 111.386719 C 86.914062 110.039062 84.144531 108.3125 81.441406 106.242188 C 80.902344 105.839844 80.03125 105.132812 80.03125 105.132812 C 79.015625 105.210938 79.109375 105.210938 78.277344 105.339844 C 75.867188 105.589844 73.402344 105.707031 70.882812 105.707031 C 44.847656 105.707031 23.648438 91.929688 23.648438 74.996094 C 23.648438 58.0625 44.832031 44.3125 70.882812 44.3125 C 96.933594 44.3125 118.117188 58.089844 118.117188 75.023438 C 118.132812 85.960938 109.273438 95.59375 95.96875 101.023438" />
  </g>
  <g clip-path="url(#d)">
    <path fill="#0A065C" d="M 92.871094 46.339844 C 92.871094 29.039062 114.304688 15 140.738281 15 C 167.167969 15 188.605469 29.039062 188.605469 46.339844 C 188.605469 63.636719 167.167969 77.679688 140.738281 77.679688 C 134 77.679688 130.53125 82.101562 130.53125 82.101562 L 126.460938 85.109375 C 117.625 90.1875 113.488281 90.75 113.488281 90.75 L 116.320312 73.28125 C 102.28125 67.835938 92.871094 57.816406 92.871094 46.339844" />
  </g>
  <g clip-path="url(#e)">
    <path fill="#13DFDC" d="M 98.3125 46.992188 C 98.3125 29.695312 119.75 15.652344 146.179688 15.652344 C 172.613281 15.652344 194.050781 29.679688 194.050781 46.992188 C 194.050781 64.292969 172.613281 78.332031 146.179688 78.332031 C 142.859375 78.332031 139.589844 78.109375 136.453125 77.679688 C 127.660156 84.847656 116.71875 88.90625 116.71875 88.90625 L 120.621094 73.492188 L 120.644531 73.492188 C 107.210938 67.941406 98.3125 58.140625 98.3125 46.992188" />
  </g>
  <g clip-path="url(#f)">
    <path fill="#0A065C" d="M 100.871094 34.429688 C 103.324219 30.625 106.84375 27.222656 111.324219 24.289062 C 120.472656 18.308594 132.617188 15 145.546875 15 C 158.453125 15 170.597656 18.296875 179.746094 24.289062 C 184.226562 27.222656 187.734375 30.648438 190.199219 34.429688 C 192.757812 38.410156 194.0625 42.636719 194.0625 46.992188 C 194.0625 51.351562 192.757812 55.5625 190.199219 59.542969 C 187.746094 63.335938 184.226562 66.75 179.746094 69.683594 C 170.597656 75.664062 158.453125 78.972656 145.546875 78.972656 C 142.570312 78.972656 139.644531 78.789062 136.796875 78.464844 C 133.738281 80.921875 130.519531 82.953125 127.816406 84.496094 C 122.097656 87.742188 117.285156 89.519531 117.246094 89.53125 C 117.164062 89.558594 117.097656 89.574219 117.019531 89.574219 C 116.847656 89.574219 116.71875 89.507812 116.585938 89.402344 C 116.402344 89.230469 116.335938 88.996094 116.375 88.761719 L 120.050781 74.210938 C 116.929688 72.941406 114.027344 71.421875 111.351562 69.683594 C 106.871094 66.75 103.363281 63.351562 100.898438 59.542969 C 98.339844 55.5625 97.035156 51.335938 97.035156 46.992188 C 97.035156 42.648438 98.3125 38.394531 100.871094 34.429688 M 120.472656 72.980469 L 121.527344 73.386719 L 121.027344 75.164062 L 117.929688 87.832031 C 119.671875 87.113281 123.175781 85.582031 127.160156 83.34375 C 129.53125 81.996094 132.300781 80.269531 135.003906 78.203125 C 135.542969 77.796875 136.414062 77.089844 136.414062 77.089844 C 137.429688 77.167969 137.335938 77.167969 138.167969 77.296875 C 140.578125 77.546875 143.042969 77.664062 145.5625 77.664062 C 171.597656 77.664062 192.796875 63.886719 192.796875 46.953125 C 192.796875 30.023438 171.613281 16.269531 145.5625 16.269531 C 119.511719 16.269531 98.328125 30.046875 98.328125 46.980469 C 98.3125 57.917969 107.171875 67.550781 120.472656 72.980469" />
  </g>
  <path fill="#0A065C" d="M 53.851562 70.03125 C 50.839844 70.03125 48.398438 72.472656 48.398438 75.484375 C 48.398438 78.492188 50.839844 80.933594 53.851562 80.933594 C 56.863281 80.933594 59.304688 78.492188 59.304688 75.484375 C 59.304688 72.472656 56.863281 70.03125 53.851562 70.03125" />
  <path fill="#0A065C" d="M 70.902344 70.03125 C 67.890625 70.03125 65.449219 72.472656 65.449219 75.484375 C 65.449219 78.492188 67.890625 80.933594 70.902344 80.933594 C 73.914062 80.933594 76.355469 78.492188 76.355469 75.484375 C 76.355469 72.472656 73.914062 70.03125 70.902344 70.03125" />
  <path fill="#0A065C" d="M 87.554688 70.03125 C 84.546875 70.03125 82.105469 72.472656 82.105469 75.484375 C 82.105469 78.492188 84.546875 80.933594 87.554688 80.933594 C 90.566406 80.933594 93.007812 78.492188 93.007812 75.484375 C 93.007812 72.472656 90.566406 70.03125 87.554688 70.03125" />
  <path fill="#0A065C" d="M 130.609375 41.988281 C 127.597656 41.988281 125.15625 44.429688 125.15625 47.441406 C 125.15625 50.453125 127.597656 52.890625 130.609375 52.890625 C 133.621094 52.890625 136.0625 50.453125 136.0625 47.441406 C 136.0625 44.429688 133.621094 41.988281 130.609375 41.988281" />
  <path fill="#0A065C" d="M 147.660156 41.988281 C 144.648438 41.988281 142.207031 44.429688 142.207031 47.441406 C 142.207031 50.453125 144.648438 52.890625 147.660156 52.890625 C 150.671875 52.890625 153.113281 50.453125 153.113281 47.441406 C 153.113281 44.429688 150.671875 41.988281 147.660156 41.988281" />
  <path fill="#0A065C" d="M 164.316406 41.988281 C 161.304688 41.988281 158.863281 44.429688 158.863281 47.441406 C 158.863281 50.453125 161.304688 52.890625 164.316406 52.890625 C 167.324219 52.890625 169.765625 50.453125 169.765625 47.441406 C 169.765625 44.429688 167.324219 41.988281 164.316406 41.988281" />
  <g fill="#0A065C">
    <g>
      <g>
        <path d="M 10.234375 -29.921875 L 10.234375 -20.921875 L 21.28125 -20.921875 C 22.164062 -20.921875 22.90625 -20.640625 23.5 -20.078125 C 24.101562 -19.515625 24.40625 -18.789062 24.40625 -17.90625 C 24.40625 -17.15625 24.101562 -16.488281 23.5 -15.90625 C 22.90625 -15.332031 22.164062 -15.046875 21.28125 -15.046875 L 10.234375 -15.046875 L 10.234375 -3.125 C 10.234375 -2.238281 9.914062 -1.492188 9.28125 -0.890625 C 8.65625 -0.296875 7.914062 0 7.0625 0 C 6.101562 0 5.328125 -0.285156 4.734375 -0.859375 C 4.140625 -1.441406 3.84375 -2.195312 3.84375 -3.125 L 3.84375 -32.6875 C 3.84375 -33.570312 4.140625 -34.3125 4.734375 -34.90625 C 5.328125 -35.507812 6.066406 -35.8125 6.953125 -35.8125 L 23.578125 -35.8125 C 24.460938 -35.8125 25.203125 -35.53125 25.796875 -34.96875 C 26.398438 -34.40625 26.703125 -33.679688 26.703125 -32.796875 C 26.703125 -32.046875 26.398438 -31.378906 25.796875 -30.796875 C 25.203125 -30.210938 24.460938 -29.921875 23.578125 -29.921875 Z M 10.234375 -29.921875" transform="translate(201.745 90.69)" />
      </g>
    </g>
  </g>
  <g fill="#0A065C">
    <g>
      <g>
        <path d="M 17.546875 -27.875 C 18.566406 -27.875 19.425781 -27.582031 20.125 -27 C 20.820312 -26.425781 21.171875 -25.75 21.171875 -24.96875 C 21.171875 -23.90625 20.898438 -23.109375 20.359375 -22.578125 C 19.816406 -22.054688 19.171875 -21.796875 18.421875 -21.796875 C 17.910156 -21.796875 17.328125 -21.914062 16.671875 -22.15625 C 16.578125 -22.1875 16.347656 -22.253906 15.984375 -22.359375 C 15.628906 -22.460938 15.242188 -22.515625 14.828125 -22.515625 C 13.941406 -22.515625 13.085938 -22.238281 12.265625 -21.6875 C 11.453125 -21.144531 10.78125 -20.316406 10.25 -19.203125 C 9.726562 -18.097656 9.46875 -16.78125 9.46875 -15.25 L 9.46875 -3.125 C 9.46875 -2.238281 9.175781 -1.492188 8.59375 -0.890625 C 8.007812 -0.296875 7.273438 0 6.390625 0 C 5.503906 0 4.769531 -0.296875 4.1875 -0.890625 C 3.613281 -1.492188 3.328125 -2.238281 3.328125 -3.125 L 3.328125 -24.25 C 3.328125 -25.132812 3.613281 -25.875 4.1875 -26.46875 C 4.769531 -27.070312 5.503906 -27.375 6.390625 -27.375 C 7.273438 -27.375 8.007812 -27.070312 8.59375 -26.46875 C 9.175781 -25.875 9.46875 -25.132812 9.46875 -24.25 L 9.46875 -23.578125 C 10.25 -24.984375 11.375 -26.050781 12.84375 -26.78125 C 14.3125 -27.507812 15.878906 -27.875 17.546875 -27.875 Z M 17.546875 -27.875" transform="translate(230.486 90.69)" />
      </g>
    </g>
  </g>
  <g fill="#0A065C">
    <g>
      <g>
        <path d="M 27.875 -14.328125 C 27.84375 -13.503906 27.519531 -12.835938 26.90625 -12.328125 C 26.289062 -11.816406 25.578125 -11.5625 24.765625 -11.5625 L 7.875 -11.5625 C 8.28125 -9.550781 9.21875 -7.972656 10.6875 -6.828125 C 12.15625 -5.679688 13.8125 -5.109375 15.65625 -5.109375 C 17.050781 -5.109375 18.140625 -5.238281 18.921875 -5.5 C 19.710938 -5.757812 20.335938 -6.03125 20.796875 -6.3125 C 21.253906 -6.601562 21.566406 -6.800781 21.734375 -6.90625 C 22.347656 -7.207031 22.929688 -7.359375 23.484375 -7.359375 C 24.203125 -7.359375 24.816406 -7.101562 25.328125 -6.59375 C 25.835938 -6.082031 26.09375 -5.488281 26.09375 -4.8125 C 26.09375 -3.882812 25.613281 -3.046875 24.65625 -2.296875 C 23.695312 -1.515625 22.414062 -0.847656 20.8125 -0.296875 C 19.21875 0.242188 17.597656 0.515625 15.953125 0.515625 C 13.085938 0.515625 10.585938 -0.078125 8.453125 -1.265625 C 6.328125 -2.460938 4.6875 -4.109375 3.53125 -6.203125 C 2.375 -8.304688 1.796875 -10.671875 1.796875 -13.296875 C 1.796875 -16.234375 2.40625 -18.804688 3.625 -21.015625 C 4.851562 -23.234375 6.472656 -24.929688 8.484375 -26.109375 C 10.503906 -27.285156 12.65625 -27.875 14.9375 -27.875 C 17.1875 -27.875 19.304688 -27.257812 21.296875 -26.03125 C 23.296875 -24.8125 24.890625 -23.160156 26.078125 -21.078125 C 27.273438 -18.992188 27.875 -16.742188 27.875 -14.328125 Z M 14.9375 -22.25 C 10.976562 -22.25 8.640625 -20.390625 7.921875 -16.671875 L 21.328125 -16.671875 L 21.328125 -17.03125 C 21.191406 -18.46875 20.492188 -19.695312 19.234375 -20.71875 C 17.972656 -21.738281 16.539062 -22.25 14.9375 -22.25 Z M 14.9375 -22.25" transform="translate(252.68 90.69)" />
      </g>
    </g>
  </g>
  <g fill="#0A065C">
    <g>
      <g>
        <path d="M 27.875 -14.328125 C 27.84375 -13.503906 27.519531 -12.835938 26.90625 -12.328125 C 26.289062 -11.816406 25.578125 -11.5625 24.765625 -11.5625 L 7.875 -11.5625 C 8.28125 -9.550781 9.21875 -7.972656 10.6875 -6.828125 C 12.15625 -5.679688 13.8125 -5.109375 15.65625 -5.109375 C 17.050781 -5.109375 18.140625 -5.238281 18.921875 -5.5 C 19.710938 -5.757812 20.335938 -6.03125 20.796875 -6.3125 C 21.253906 -6.601562 21.566406 -6.800781 21.734375 -6.90625 C 22.347656 -7.207031 22.929688 -7.359375 23.484375 -7.359375 C 24.203125 -7.359375 24.816406 -7.101562 25.328125 -6.59375 C 25.835938 -6.082031 26.09375 -5.488281 26.09375 -4.8125 C 26.09375 -3.882812 25.613281 -3.046875 24.65625 -2.296875 C 23.695312 -1.515625 22.414062 -0.847656 20.8125 -0.296875 C 19.21875 0.242188 17.597656 0.515625 15.953125 0.515625 C 13.085938 0.515625 10.585938 -0.078125 8.453125 -1.265625 C 6.328125 -2.460938 4.6875 -4.109375 3.53125 -6.203125 C 2.375 -8.304688 1.796875 -10.671875 1.796875 -13.296875 C 1.796875 -16.234375 2.40625 -18.804688 3.625 -21.015625 C 4.851562 -23.234375 6.472656 -24.929688 8.484375 -26.109375 C 10.503906 -27.285156 12.65625 -27.875 14.9375 -27.875 C 17.1875 -27.875 19.304688 -27.257812 21.296875 -26.03125 C 23.296875 -24.8125 24.890625 -23.160156 26.078125 -21.078125 C 27.273438 -18.992188 27.875 -16.742188 27.875 -14.328125 Z M 14.9375 -22.25 C 10.976562 -22.25 8.640625 -20.390625 7.921875 -16.671875 L 21.328125 -16.671875 L 21.328125 -17.03125 C 21.191406 -18.46875 20.492188 -19.695312 19.234375 -20.71875 C 17.972656 -21.738281 16.539062 -22.25 14.9375 -22.25 Z M 14.9375 -22.25" transform="translate(282.343 90.69)" />
      </g>
    </g>
  </g>
  <g fill="#0A065C">
    <g>
      <g>
        <path d="M 27.375 -35.8125 C 28.289062 -35.8125 29.035156 -35.535156 29.609375 -34.984375 C 30.191406 -34.441406 30.484375 -33.726562 30.484375 -32.84375 C 30.484375 -31.957031 30.191406 -31.25 29.609375 -30.71875 C 29.035156 -30.1875 28.289062 -29.921875 27.375 -29.921875 L 19.34375 -29.921875 L 19.34375 -3.125 C 19.34375 -2.238281 19.015625 -1.492188 18.359375 -0.890625 C 17.710938 -0.296875 16.910156 0 15.953125 0 C 15.003906 0 14.222656 -0.296875 13.609375 -0.890625 C 12.992188 -1.492188 12.6875 -2.238281 12.6875 -3.125 L 12.6875 -29.921875 L 4.65625 -29.921875 C 3.738281 -29.921875 2.988281 -30.191406 2.40625 -30.734375 C 1.820312 -31.285156 1.53125 -32.003906 1.53125 -32.890625 C 1.53125 -33.742188 1.828125 -34.441406 2.421875 -34.984375 C 3.023438 -35.535156 3.769531 -35.8125 4.65625 -35.8125 Z M 27.375 -35.8125" transform="translate(312.004 90.69)" />
      </g>
    </g>
  </g>
  <g fill="#0A065C">
    <g>
      <g>
        <path d="M 25.46875 -27.875 C 26.363281 -27.875 27.097656 -27.582031 27.671875 -27 C 28.253906 -26.425781 28.546875 -25.679688 28.546875 -24.765625 L 28.546875 -3.125 C 28.546875 -2.238281 28.253906 -1.492188 27.671875 -0.890625 C 27.097656 -0.296875 26.363281 0 25.46875 0 C 24.582031 0 23.859375 -0.285156 23.296875 -0.859375 C 22.734375 -1.441406 22.4375 -2.175781 22.40625 -3.0625 C 21.550781 -2.070312 20.398438 -1.226562 18.953125 -0.53125 C 17.503906 0.164062 15.976562 0.515625 14.375 0.515625 C 12.019531 0.515625 9.882812 -0.0859375 7.96875 -1.296875 C 6.0625 -2.515625 4.554688 -4.195312 3.453125 -6.34375 C 2.347656 -8.488281 1.796875 -10.925781 1.796875 -13.65625 C 1.796875 -16.382812 2.335938 -18.832031 3.421875 -21 C 4.515625 -23.164062 6.007812 -24.851562 7.90625 -26.0625 C 9.800781 -27.269531 11.890625 -27.875 14.171875 -27.875 C 15.804688 -27.875 17.335938 -27.578125 18.765625 -26.984375 C 20.203125 -26.390625 21.414062 -25.628906 22.40625 -24.703125 L 22.40625 -24.765625 C 22.40625 -25.648438 22.691406 -26.390625 23.265625 -26.984375 C 23.847656 -27.578125 24.582031 -27.875 25.46875 -27.875 Z M 15.140625 -5.109375 C 17.359375 -5.109375 19.164062 -5.914062 20.5625 -7.53125 C 21.957031 -9.15625 22.65625 -11.195312 22.65625 -13.65625 C 22.65625 -16.113281 21.957031 -18.160156 20.5625 -19.796875 C 19.164062 -21.429688 17.359375 -22.25 15.140625 -22.25 C 12.960938 -22.25 11.171875 -21.429688 9.765625 -19.796875 C 8.367188 -18.160156 7.671875 -16.113281 7.671875 -13.65625 C 7.671875 -11.195312 8.359375 -9.15625 9.734375 -7.53125 C 11.117188 -5.914062 12.921875 -5.109375 15.140625 -5.109375 Z M 15.140625 -5.109375" transform="translate(344.018 90.69)" />
      </g>
    </g>
  </g>
  <g fill="#0A065C">
    <g>
      <g>
        <path d="M 9.96875 -3.125 C 9.96875 -2.238281 9.671875 -1.492188 9.078125 -0.890625 C 8.484375 -0.296875 7.742188 0 6.859375 0 C 6.003906 0 5.285156 -0.296875 4.703125 -0.890625 C 4.128906 -1.492188 3.84375 -2.238281 3.84375 -3.125 L 3.84375 -34.734375 C 3.84375 -35.617188 4.140625 -36.359375 4.734375 -36.953125 C 5.328125 -37.554688 6.066406 -37.859375 6.953125 -37.859375 C 7.804688 -37.859375 8.519531 -37.554688 9.09375 -36.953125 C 9.675781 -36.359375 9.96875 -35.617188 9.96875 -34.734375 Z M 9.96875 -3.125" transform="translate(375.88 90.69)" />
      </g>
    </g>
  </g>
  <g fill="#0A065C">
    <g>
      <g>
        <path d="M 26.09375 -5.375 C 26.738281 -4.6875 27.0625 -3.914062 27.0625 -3.0625 C 27.0625 -2.21875 26.726562 -1.503906 26.0625 -0.921875 C 25.394531 -0.335938 24.6875 -0.046875 23.9375 -0.046875 C 23.050781 -0.046875 22.300781 -0.390625 21.6875 -1.078125 L 12.484375 -10.796875 L 9.96875 -8.484375 L 9.96875 -3.125 C 9.96875 -2.238281 9.675781 -1.492188 9.09375 -0.890625 C 8.519531 -0.296875 7.789062 0 6.90625 0 C 6.019531 0 5.285156 -0.296875 4.703125 -0.890625 C 4.128906 -1.492188 3.84375 -2.238281 3.84375 -3.125 L 3.84375 -34.734375 C 3.84375 -35.617188 4.128906 -36.359375 4.703125 -36.953125 C 5.285156 -37.554688 6.019531 -37.859375 6.90625 -37.859375 C 7.789062 -37.859375 8.519531 -37.554688 9.09375 -36.953125 C 9.675781 -36.359375 9.96875 -35.617188 9.96875 -34.734375 L 9.96875 -15.8125 L 20.921875 -26.390625 C 21.566406 -27.046875 22.316406 -27.375 23.171875 -27.375 C 23.921875 -27.375 24.59375 -27.054688 25.1875 -26.421875 C 25.789062 -25.785156 26.09375 -25.144531 26.09375 -24.5 C 26.09375 -23.6875 25.679688 -22.921875 24.859375 -22.203125 L 17.140625 -15.09375 Z M 26.09375 -5.375" transform="translate(389.687 90.69)" />
      </g>
    </g>
  </g>
</svg>