<?xml version="1.0" encoding="UTF-8"?>
<svg width="93px" height="150px" viewBox="0 0 220 150" xmlns="http://www.w3.org/2000/svg" xmlns:xlink="http://www.w3.org/1999/xlink" version="1.1">
 <!-- Generated by Pixelmator Pro 2.2 -->
 <g id="group">
  <path id="Путь" d="M123.574 74.383 C123.574 57.082 102.141 43.043 75.707 43.043 49.277 43.043 27.84 57.082 27.84 74.383 27.84 91.68 49.277 105.719 75.707 105.719 82.445 105.719 85.91 110.145 85.91 110.145 L89.984 113.152 C98.816 118.23 102.957 118.793 102.957 118.793 L100.125 101.324 C114.164 95.879 123.574 85.855 123.574 74.383" fill="#0a065c" fill-opacity="1" stroke="none"/>
 </g>
 <g id="group-1">
  <path id="Путь-1" d="M118.133 75.035 C118.133 57.738 96.695 43.695 70.266 43.695 43.832 43.695 22.395 57.723 22.395 75.035 22.395 92.336 43.832 106.375 70.266 106.375 73.586 106.375 76.855 106.152 79.992 105.719 88.785 112.891 99.727 116.949 99.727 116.949 L95.824 101.531 95.801 101.531 C109.234 95.984 118.133 86.184 118.133 75.035" fill="#08a1e4" fill-opacity="1" stroke="none"/>
 </g>
 <g id="group-2">
  <path id="Путь-2" d="M115.574 62.473 C113.121 58.664 109.602 55.266 105.121 52.332 95.969 46.352 83.828 43.043 70.898 43.043 57.992 43.043 45.848 46.34 36.699 52.332 32.219 55.266 28.711 58.691 26.246 62.473 23.688 66.453 22.383 70.68 22.383 75.035 22.383 79.395 23.688 83.605 26.246 87.586 28.699 91.379 32.219 94.793 36.699 97.727 45.848 103.707 57.992 107.016 70.898 107.016 73.875 107.016 76.801 106.832 79.648 106.504 82.707 108.965 85.926 110.992 88.629 112.539 94.348 115.781 99.16 117.563 99.199 117.574 99.281 117.602 99.344 117.613 99.426 117.613 99.598 117.613 99.727 117.551 99.859 117.445 100.043 117.273 100.109 117.039 100.07 116.805 L96.391 102.254 C99.516 100.984 102.418 99.465 105.094 97.727 109.574 94.793 113.082 91.391 115.547 87.586 118.105 83.605 119.41 79.379 119.41 75.035 119.41 70.691 118.133 66.438 115.574 62.473 M95.969 101.023 L94.914 101.43 95.418 103.207 98.516 115.875 C96.773 115.156 93.27 113.625 89.285 111.387 86.914 110.039 84.145 108.313 81.441 106.242 80.902 105.84 80.031 105.133 80.031 105.133 79.016 105.211 79.109 105.211 78.277 105.34 75.867 105.59 73.402 105.707 70.883 105.707 44.848 105.707 23.648 91.93 23.648 74.996 23.648 58.063 44.832 44.313 70.883 44.313 96.934 44.313 118.117 58.09 118.117 75.023 118.133 85.961 109.273 95.594 95.969 101.023" fill="#0a065c" fill-opacity="1" stroke="none"/>
 </g>
 <g id="group-3">
  <path id="Путь-3" d="M92.871 46.34 C92.871 29.039 114.305 15 140.738 15 167.168 15 188.605 29.039 188.605 46.34 188.605 63.637 167.168 77.68 140.738 77.68 134 77.68 130.531 82.102 130.531 82.102 L126.461 85.109 C117.625 90.188 113.488 90.75 113.488 90.75 L116.32 73.281 C102.281 67.836 92.871 57.816 92.871 46.34" fill="#0a065c" fill-opacity="1" stroke="none"/>
 </g>
 <g id="group-4">
  <path id="Путь-4" d="M98.313 46.992 C98.313 29.695 119.75 15.652 146.18 15.652 172.613 15.652 194.051 29.68 194.051 46.992 194.051 64.293 172.613 78.332 146.18 78.332 142.859 78.332 139.59 78.109 136.453 77.68 127.66 84.848 116.719 88.906 116.719 88.906 L120.621 73.492 120.645 73.492 C107.211 67.941 98.313 58.141 98.313 46.992" fill="#13dfdc" fill-opacity="1" stroke="none"/>
 </g>
 <g id="group-5">
  <path id="Путь-5" d="M100.871 34.43 C103.324 30.625 106.844 27.223 111.324 24.289 120.473 18.309 132.617 15 145.547 15 158.453 15 170.598 18.297 179.746 24.289 184.227 27.223 187.734 30.648 190.199 34.43 192.758 38.41 194.063 42.637 194.063 46.992 194.063 51.352 192.758 55.563 190.199 59.543 187.746 63.336 184.227 66.75 179.746 69.684 170.598 75.664 158.453 78.973 145.547 78.973 142.57 78.973 139.645 78.789 136.797 78.465 133.738 80.922 130.52 82.953 127.816 84.496 122.098 87.742 117.285 89.52 117.246 89.531 117.164 89.559 117.098 89.574 117.02 89.574 116.848 89.574 116.719 89.508 116.586 89.402 116.402 89.23 116.336 88.996 116.375 88.762 L120.051 74.211 C116.93 72.941 114.027 71.422 111.352 69.684 106.871 66.75 103.363 63.352 100.898 59.543 98.34 55.563 97.035 51.336 97.035 46.992 97.035 42.648 98.313 38.395 100.871 34.43 M120.473 72.98 L121.527 73.387 121.027 75.164 117.93 87.832 C119.672 87.113 123.176 85.582 127.16 83.344 129.531 81.996 132.301 80.27 135.004 78.203 135.543 77.797 136.414 77.09 136.414 77.09 137.43 77.168 137.336 77.168 138.168 77.297 140.578 77.547 143.043 77.664 145.563 77.664 171.598 77.664 192.797 63.887 192.797 46.953 192.797 30.023 171.613 16.27 145.563 16.27 119.512 16.27 98.328 30.047 98.328 46.98 98.313 57.918 107.172 67.551 120.473 72.98" fill="#0a065c" fill-opacity="1" stroke="none"/>
 </g>
 <path id="Путь-6" d="M53.852 70.031 C50.84 70.031 48.398 72.473 48.398 75.484 48.398 78.492 50.84 80.934 53.852 80.934 56.863 80.934 59.305 78.492 59.305 75.484 59.305 72.473 56.863 70.031 53.852 70.031" fill="#0a065c" fill-opacity="1" stroke="none"/>
 <path id="Путь-7" d="M70.902 70.031 C67.891 70.031 65.449 72.473 65.449 75.484 65.449 78.492 67.891 80.934 70.902 80.934 73.914 80.934 76.355 78.492 76.355 75.484 76.355 72.473 73.914 70.031 70.902 70.031" fill="#0a065c" fill-opacity="1" stroke="none"/>
 <path id="Путь-8" d="M87.555 70.031 C84.547 70.031 82.105 72.473 82.105 75.484 82.105 78.492 84.547 80.934 87.555 80.934 90.566 80.934 93.008 78.492 93.008 75.484 93.008 72.473 90.566 70.031 87.555 70.031" fill="#0a065c" fill-opacity="1" stroke="none"/>
 <path id="Путь-9" d="M130.609 41.988 C127.598 41.988 125.156 44.43 125.156 47.441 125.156 50.453 127.598 52.891 130.609 52.891 133.621 52.891 136.063 50.453 136.063 47.441 136.063 44.43 133.621 41.988 130.609 41.988" fill="#0a065c" fill-opacity="1" stroke="none"/>
 <path id="Путь-10" d="M147.66 41.988 C144.648 41.988 142.207 44.43 142.207 47.441 142.207 50.453 144.648 52.891 147.66 52.891 150.672 52.891 153.113 50.453 153.113 47.441 153.113 44.43 150.672 41.988 147.66 41.988" fill="#0a065c" fill-opacity="1" stroke="none"/>
 <path id="Путь-11" d="M164.316 41.988 C161.305 41.988 158.863 44.43 158.863 47.441 158.863 50.453 161.305 52.891 164.316 52.891 167.324 52.891 169.766 50.453 169.766 47.441 169.766 44.43 167.324 41.988 164.316 41.988" fill="#0a065c" fill-opacity="1" stroke="none"/>
</svg>
